<?xml version="1.0" encoding="UTF-8" standalone="no"?>
<svg
   xmlns:dc="http://purl.org/dc/elements/1.1/"
   xmlns:cc="http://creativecommons.org/ns#"
   xmlns:rdf="http://www.w3.org/1999/02/22-rdf-syntax-ns#"
   xmlns:svg="http://www.w3.org/2000/svg"
   xmlns="http://www.w3.org/2000/svg"
   xmlns:sodipodi="http://sodipodi.sourceforge.net/DTD/sodipodi-0.dtd"
   xmlns:inkscape="http://www.inkscape.org/namespaces/inkscape"
   viewBox="0 0 512 512"
   version="1.1"
   id="svg4"
   sodipodi:docname="arrow_border.svg"
   inkscape:version="0.92.3 (2405546, 2018-03-11)">
  <metadata
     id="metadata10">
    <rdf:RDF>
      <cc:Work
         rdf:about="">
        <dc:format>image/svg+xml</dc:format>
        <dc:type
           rdf:resource="http://purl.org/dc/dcmitype/StillImage" />
        <dc:title></dc:title>
      </cc:Work>
    </rdf:RDF>
  </metadata>
  <defs
     id="defs8" />
  <sodipodi:namedview
     pagecolor="#ffffff"
     bordercolor="#666666"
     borderopacity="1"
     objecttolerance="10"
     gridtolerance="10"
     guidetolerance="10"
     inkscape:pageopacity="0"
     inkscape:pageshadow="2"
     inkscape:window-width="1920"
     inkscape:window-height="1017"
     id="namedview6"
     showgrid="false"
     inkscape:zoom="1.3037281"
     inkscape:cx="170.56582"
     inkscape:cy="220.83636"
     inkscape:window-x="-8"
     inkscape:window-y="-8"
     inkscape:window-maximized="1"
     inkscape:current-layer="svg4" />
  <path
     d="M427 234.625H167.296l119.702-119.702L256 85 85 256l171 171 29.922-29.924-118.626-119.701H427v-42.75z"
     id="path2" />
  <path
     style="fill:#ffffff;stroke:#000000;stroke-width:8.967;fill-opacity:1;stroke-miterlimit:4;stroke-dasharray:none;stroke-linejoin:round;stroke-linecap:round"
     d="m 170.94831,341.01964 -85.137694,-85.14029 85.139594,-85.1207 85.13958,-85.120698 15.21129,14.681758 15.2113,14.68177 -59.50734,59.511 c -32.72903,32.73106 -59.50734,59.76906 -59.50734,60.08446 0,0.31538 58.33271,0.57344 129.62825,0.57344 h 129.62826 v 21.09335 21.09336 H 296.55327 166.35234 l 42.18604,42.37846 c 23.20232,23.30816 49.94936,50.23183 59.43788,59.83038 l 17.25183,17.45191 -14.57104,14.57104 -14.57105,14.57104 z"
     id="path823"
     inkscape:connector-curvature="0" />
</svg>
